<svg width="16" height="17" viewBox="0 0 16 17" fill="none" xmlns="http://www.w3.org/2000/svg">
<path fill-rule="evenodd" clip-rule="evenodd" d="M10 5.34674V6.63245H11V5.34674C11 3.68989 9.65685 2.34674 8 2.34674C6.34315 2.34674 5 3.68989 5 5.34674V6.63245H6V5.34674C6 4.24217 6.89543 3.34674 8 3.34674C9.10457 3.34674 10 4.24217 10 5.34674ZM10 10.061H11V11.3467C11 13.0036 9.65685 14.3467 8 14.3467C6.34315 14.3467 5 13.0036 5 11.3467V10.061H6V11.3467C6 12.4513 6.89543 13.3467 8 13.3467C9.10457 13.3467 10 12.4513 10 11.3467V10.061ZM7.5 5.77531V10.9182H8.5V5.77531H7.5Z" fill="black"/>
</svg>
