<svg width="16" height="16" viewBox="0 0 16 16" fill="none" xmlns="http://www.w3.org/2000/svg">
<path fill-rule="evenodd" clip-rule="evenodd" d="M14 2H2.5V1H14V2ZM8.54545 2.82172L8.88332 3.13142L11.0651 5.13142L10.3894 5.86858L9.04545 4.63662V10.8634L10.3894 9.63142L11.0651 10.3686L8.88332 12.3686L8.54545 12.6783L8.20759 12.3686L8.54545 12L8.20758 12.3686L8.20753 12.3685L8.20735 12.3684L8.20663 12.3677L8.20375 12.3651L8.19245 12.3547L8.14879 12.3147L7.9865 12.1659L7.4362 11.6615L6.02577 10.3686L6.7015 9.63142L8.04545 10.8634V4.63662L6.7015 5.86858L6.02577 5.13142L8.20759 3.13142L8.54545 2.82172ZM8.54545 15H2.5V14H8.54545H14V15H8.54545Z" fill="black"/>
</svg>
