<svg width="16" height="16" fill="none" xmlns="http://www.w3.org/2000/svg">
  <mask id="a" fill="#fff">
    <path fill-rule="evenodd" clip-rule="evenodd" d="m1.751 6.349 2.287 2.858 3.381-2.255-.555-.832-2.618 1.746-1.714-2.142-.78.625Z"/>
    <path d="M13.858 8a4.56 4.56 0 0 1-4.56 4.56h-.042v1h.042A5.56 5.56 0 1 0 3.754 8.42c.039-.036.077-.079.115-.127l.876-.044A4.56 4.56 0 1 1 13.859 8Z"/>
  </mask>
  <path fill-rule="evenodd" clip-rule="evenodd" d="m1.751 6.349 2.287 2.858 3.381-2.255-.555-.832-2.618 1.746-1.714-2.142-.78.625Z" fill="#000"/>
  <path d="M13.858 8a4.56 4.56 0 0 1-4.56 4.56h-.042v1h.042A5.56 5.56 0 1 0 3.754 8.42c.039-.036.077-.079.115-.127l.876-.044A4.56 4.56 0 1 1 13.859 8Z" fill="#000"/>
  <path d="m1.751 6.349-.624-.781-.781.625.624.78.781-.624Zm2.287 2.858-.781.624.572.716.763-.508-.554-.832Zm3.381-2.255.555.832.832-.554-.555-.832-.832.554Zm-.555-.832.832-.554-.554-.832-.832.554.554.832ZM4.246 7.866l-.781.625.573.716.762-.509-.554-.832ZM2.532 5.724l.781-.625-.625-.78-.78.624.624.781Zm6.724 6.836.01-1-1.01-.01v1.01h1Zm0 1h-1v.993l.993.007.007-1ZM3.754 8.42l-.998.074.154 2.06 1.52-1.398-.676-.736Zm.115-.127-.05-1-.46.024-.282.365.792.61Zm.876-.044.05.998 1.002-.05-.054-1.002-.998.054Zm1.287-1.573.555.832 1.664-1.11-.555-.831-1.664 1.109ZM4.8 8.698 7.42 6.952l-1.11-1.664-2.618 1.746 1.11 1.664Zm-3.049-2.35 1.714 2.143 1.562-1.25L3.313 5.1 1.751 6.35Zm.625.782.78-.625-1.249-1.562-.78.625L2.376 7.13Zm2.442 1.452L2.532 5.724.97 6.974 3.257 9.83l1.561-1.249ZM6.864 6.12 3.483 8.375l1.11 1.664 3.38-2.255L6.865 6.12Zm2.434 7.44A5.56 5.56 0 0 0 14.858 8h-2a3.56 3.56 0 0 1-3.56 3.56v2Zm-.051 0h.051v-2h-.033l-.018 2Zm1.01 0v-1h-2v1h2Zm-1.008 1h.05v-2h-.035l-.015 2Zm.05 0A6.56 6.56 0 0 0 15.858 8h-2a4.56 4.56 0 0 1-4.56 4.56v2ZM15.858 8a6.56 6.56 0 0 0-6.56-6.56v2A4.56 4.56 0 0 1 13.858 8h2Zm-6.56-6.56A6.56 6.56 0 0 0 2.738 8h2a4.56 4.56 0 0 1 4.56-4.56v-2ZM2.738 8c0 .166.005.33.017.493l1.995-.149A4.639 4.639 0 0 1 4.738 8h-2Zm.338-.319c-.007.009-.007.008 0 .001L4.43 9.155c.086-.079.162-.164.23-.253L3.078 7.681Zm1.617-.432-.875.044.1 1.997.876-.044-.1-1.997ZM3.738 8c0 .1.003.201.008.301l1.997-.107A3.629 3.629 0 0 1 5.738 8h-2Zm5.56-5.56A5.56 5.56 0 0 0 3.738 8h2a3.56 3.56 0 0 1 3.56-3.56v-2ZM14.858 8a5.56 5.56 0 0 0-5.56-5.56v2A3.56 3.56 0 0 1 12.858 8h2Z" fill="#000" mask="url(#a)"/>
</svg>
