<svg width="16" height="16" viewBox="0 0 16 16" fill="none" xmlns="http://www.w3.org/2000/svg">
<path fill-rule="evenodd" clip-rule="evenodd" d="M8.35355 0.646461L8 0.292908L7.64645 0.646461L4.64645 3.64646L5.35355 4.35357L7.5 2.20712L7.5 10.5H8.5L8.5 2.20712L10.6464 4.35357L11.3536 3.64646L8.35355 0.646461ZM3 5.50001C2.72386 5.50001 2.5 5.72387 2.5 6.00001V15C2.5 15.2762 2.72386 15.5 3 15.5H13C13.2761 15.5 13.5 15.2762 13.5 15V6.00001C13.5 5.72387 13.2761 5.50001 13 5.50001H10.5V6.50001H12.5V14.5H3.5V6.50001H5.5V5.50001H3Z" fill="black"/>
</svg>
