<svg width="17" height="17" viewBox="0 0 17 17" fill="none" xmlns="http://www.w3.org/2000/svg">
<path fill-rule="evenodd" clip-rule="evenodd" d="M3.80444 8.47266C3.80444 7.92037 4.25216 7.47266 4.80444 7.47266C5.35673 7.47266 5.80444 7.92037 5.80444 8.47266C5.80444 9.02494 5.35673 9.47266 4.80444 9.47266C4.25216 9.47266 3.80444 9.02494 3.80444 8.47266ZM7.80444 8.47266C7.80444 7.92037 8.25216 7.47266 8.80444 7.47266C9.35673 7.47266 9.80444 7.92037 9.80444 8.47266C9.80444 9.02494 9.35673 9.47266 8.80444 9.47266C8.25216 9.47266 7.80444 9.02494 7.80444 8.47266ZM12.8044 7.47266C12.2522 7.47266 11.8044 7.92037 11.8044 8.47266C11.8044 9.02494 12.2522 9.47266 12.8044 9.47266C13.3567 9.47266 13.8044 9.02494 13.8044 8.47266C13.8044 7.92037 13.3567 7.47266 12.8044 7.47266Z" fill="black"/>
</svg>
