<svg xmlns="http://www.w3.org/2000/svg" width="133" height="22" viewBox="0 0 133 22" fill="none">
    <path d="M32.1499 17.1981C31.1826 17.1981 30.3495 16.9914 29.6506 16.5781C28.956 16.1605 28.4191 15.5745 28.0398 14.8203C27.6648 14.0618 27.4773 13.1733 27.4773 12.1548C27.4773 11.1491 27.6648 10.2628 28.0398 9.49571C28.4191 8.72866 28.9475 8.12994 29.625 7.69954C30.3068 7.26914 31.1037 7.05394 32.0156 7.05394C32.5696 7.05394 33.1066 7.14556 33.6264 7.3288C34.1463 7.51204 34.6129 7.79968 35.0263 8.19173C35.4397 8.58377 35.7656 9.09301 36.0043 9.71943C36.2429 10.3416 36.3622 11.098 36.3622 11.9886V12.6662H28.5576V11.2343H34.4894C34.4894 10.7315 34.3871 10.2862 34.1826 9.8984C33.978 9.50636 33.6904 9.19741 33.3196 8.97156C32.9531 8.74571 32.5227 8.63278 32.0284 8.63278C31.4915 8.63278 31.0227 8.76488 30.6222 9.02909C30.2259 9.28903 29.9191 9.62994 29.7017 10.0518C29.4887 10.4694 29.3821 10.9233 29.3821 11.4133V12.5319C29.3821 13.1882 29.4972 13.7464 29.7273 14.2066C29.9617 14.6669 30.2877 15.0184 30.7053 15.2613C31.1229 15.5 31.6108 15.6193 32.1691 15.6193C32.5313 15.6193 32.8615 15.5681 33.1598 15.4659C33.4581 15.3593 33.7159 15.2017 33.9333 14.9929C34.1506 14.7841 34.3168 14.5262 34.4318 14.2194L36.2408 14.5454C36.0959 15.0781 35.836 15.5447 35.461 15.9453C35.0902 16.3416 34.6236 16.6505 34.0611 16.8721C33.5029 17.0895 32.8658 17.1981 32.1499 17.1981Z" fill="#F7F7F8"/>
    <path d="M41.34 17.2173C40.7179 17.2173 40.1554 17.1022 39.6525 16.8721C39.1497 16.6378 38.7513 16.299 38.4572 15.8558C38.1675 15.4126 38.0226 14.8693 38.0226 14.2258C38.0226 13.6718 38.1291 13.2159 38.3422 12.8579C38.5552 12.5 38.8429 12.2166 39.2051 12.0078C39.5673 11.799 39.9721 11.6413 40.4196 11.5348C40.867 11.4282 41.323 11.3473 41.7875 11.2919C42.3756 11.2237 42.8528 11.1683 43.2193 11.1257C43.5858 11.0788 43.8521 11.0042 44.0183 10.902C44.1845 10.7997 44.2676 10.6335 44.2676 10.4034V10.3586C44.2676 9.80039 44.1099 9.36786 43.7946 9.06105C43.4835 8.75423 43.019 8.60082 42.4011 8.60082C41.7577 8.60082 41.2506 8.74358 40.8798 9.02909C40.5133 9.31034 40.2598 9.62355 40.1192 9.96872L38.323 9.55963C38.5361 8.96304 38.8471 8.4815 39.2562 8.11502C39.6696 7.74429 40.1447 7.47582 40.6817 7.30963C41.2186 7.13917 41.7832 7.05394 42.3756 7.05394C42.7676 7.05394 43.1831 7.10082 43.622 7.19457C44.0652 7.28406 44.4785 7.45025 44.8621 7.69315C45.2498 7.93605 45.5673 8.28335 45.8145 8.73505C46.0616 9.1825 46.1852 9.76417 46.1852 10.4801V17H44.3187V15.6576H44.242C44.1185 15.9048 43.9331 16.1477 43.6859 16.3863C43.4388 16.625 43.1213 16.8231 42.7335 16.9808C42.3457 17.1385 41.8812 17.2173 41.34 17.2173ZM41.7555 15.6832C42.2839 15.6832 42.7356 15.5788 43.1106 15.37C43.4899 15.1612 43.7775 14.8885 43.9736 14.5518C44.1739 14.2109 44.274 13.8466 44.274 13.4588V12.1931C44.2058 12.2613 44.0737 12.3253 43.8777 12.3849C43.6859 12.4403 43.4665 12.4893 43.2193 12.5319C42.9721 12.5703 42.7314 12.6065 42.497 12.6406C42.2626 12.6704 42.0666 12.696 41.9089 12.7173C41.5382 12.7642 41.1994 12.843 40.8926 12.9538C40.59 13.0646 40.3471 13.2244 40.1639 13.4332C39.9849 13.6378 39.8954 13.9105 39.8954 14.2514C39.8954 14.7244 40.0702 15.0824 40.4196 15.3253C40.769 15.5639 41.2143 15.6832 41.7555 15.6832Z" fill="#F7F7F8"/>
    <path d="M56.0881 9.5788L54.3558 9.88562C54.2834 9.66403 54.1683 9.45309 54.0107 9.25281C53.8573 9.05252 53.6485 8.88846 53.3843 8.76062C53.1201 8.63278 52.7898 8.56886 52.3935 8.56886C51.8523 8.56886 51.4006 8.69031 51.0384 8.93321C50.6762 9.17184 50.4951 9.48079 50.4951 9.86005C50.4951 10.1882 50.6165 10.4524 50.8594 10.6527C51.1023 10.8529 51.4943 11.017 52.0355 11.1449L53.5952 11.5028C54.4986 11.7116 55.1719 12.0333 55.6151 12.468C56.0583 12.9027 56.2799 13.4673 56.2799 14.1619C56.2799 14.75 56.1094 15.2741 55.7685 15.7343C55.4318 16.1903 54.961 16.5483 54.3558 16.8082C53.755 17.0681 53.0583 17.1981 52.2656 17.1981C51.1662 17.1981 50.2692 16.9637 49.5746 16.495C48.88 16.022 48.4539 15.3508 48.2962 14.4815L50.1435 14.2003C50.2585 14.6818 50.495 15.0461 50.853 15.2933C51.211 15.5362 51.6776 15.6576 52.2529 15.6576C52.8793 15.6576 53.38 15.5277 53.755 15.2677C54.13 15.0035 54.3175 14.6818 54.3175 14.3025C54.3175 13.9957 54.2024 13.7379 53.9723 13.5291C53.7465 13.3203 53.3992 13.1626 52.9304 13.0561L51.2685 12.6917C50.3523 12.4829 49.6747 12.1505 49.2358 11.6946C48.8012 11.2386 48.5838 10.6612 48.5838 9.96232C48.5838 9.38278 48.7458 8.87568 49.0696 8.44102C49.3935 8.00636 49.8409 7.66758 50.412 7.42468C50.983 7.17752 51.6371 7.05394 52.3743 7.05394C53.4354 7.05394 54.2706 7.28406 54.88 7.74429C55.4894 8.20025 55.8921 8.81176 56.0881 9.5788Z" fill="#F7F7F8"/>
    <path d="M59.5893 20.6818C59.3038 20.6818 59.0439 20.6583 58.8095 20.6115C58.5751 20.5689 58.4004 20.522 58.2854 20.4708L58.7456 18.9048C59.095 18.9985 59.4061 19.039 59.6788 19.0262C59.9515 19.0135 60.1923 18.9112 60.4011 18.7194C60.6142 18.5277 60.8017 18.2145 60.9636 17.7798L61.2001 17.1278L57.6078 7.18179H59.6533L62.1398 14.8011H62.242L64.7285 7.18179H66.7804L62.7342 18.3103C62.5467 18.8217 62.3081 19.2542 62.0183 19.6079C61.7285 19.9659 61.3834 20.2343 60.9828 20.4133C60.5822 20.5923 60.1177 20.6818 59.5893 20.6818Z" fill="#F7F7F8"/>
    <path d="M68.73 17V3.90906H70.6412V8.7734H70.7562C70.867 8.56886 71.0268 8.33235 71.2356 8.06389C71.4444 7.79542 71.7342 7.56105 72.105 7.36076C72.4757 7.15622 72.9658 7.05394 73.5751 7.05394C74.3677 7.05394 75.0751 7.25423 75.6973 7.6548C76.3194 8.05536 76.8074 8.63278 77.1611 9.38704C77.519 10.1413 77.698 11.049 77.698 12.1101C77.698 13.1711 77.5212 14.0809 77.1675 14.8395C76.8138 15.5937 76.328 16.1754 75.7101 16.5845C75.0922 16.9893 74.3869 17.1917 73.5943 17.1917C72.9977 17.1917 72.5098 17.0916 72.1305 16.8913C71.7555 16.691 71.4615 16.4566 71.2484 16.1882C71.0354 15.9197 70.8713 15.6811 70.7562 15.4723H70.5964V17H68.73ZM70.6028 12.0909C70.6028 12.7812 70.703 13.3863 70.9033 13.9062C71.1035 14.4261 71.3933 14.8331 71.7726 15.1271C72.1518 15.4169 72.6163 15.5618 73.166 15.5618C73.7371 15.5618 74.2143 15.4105 74.5979 15.1079C74.9814 14.8011 75.2712 14.3856 75.4672 13.8615C75.6675 13.3373 75.7676 12.7471 75.7676 12.0909C75.7676 11.4431 75.6696 10.8615 75.4736 10.3458C75.2818 9.83022 74.992 9.42326 74.6042 9.12497C74.2207 8.82667 73.7413 8.67752 73.166 8.67752C72.6121 8.67752 72.1433 8.82028 71.7598 9.10579C71.3805 9.3913 71.0929 9.78974 70.8969 10.3011C70.7008 10.8125 70.6028 11.4091 70.6028 12.0909Z" fill="#F7F7F8"/>
    <path d="M81.7553 3.90906V17H79.8441V3.90906H81.7553Z" fill="#F7F7F8"/>
    <path d="M88.4622 17.1981C87.5417 17.1981 86.7385 16.9872 86.0524 16.5653C85.3663 16.1434 84.8337 15.5532 84.4544 14.7947C84.0751 14.0362 83.8855 13.1498 83.8855 12.1356C83.8855 11.1172 84.0751 10.2265 84.4544 9.46374C84.8337 8.70096 85.3663 8.10863 86.0524 7.68676C86.7385 7.26488 87.5417 7.05394 88.4622 7.05394C89.3827 7.05394 90.1859 7.26488 90.872 7.68676C91.5581 8.10863 92.0908 8.70096 92.47 9.46374C92.8493 10.2265 93.0389 11.1172 93.0389 12.1356C93.0389 13.1498 92.8493 14.0362 92.47 14.7947C92.0908 15.5532 91.5581 16.1434 90.872 16.5653C90.1859 16.9872 89.3827 17.1981 88.4622 17.1981ZM88.4686 15.5937C89.0652 15.5937 89.5595 15.436 89.9515 15.1207C90.3436 14.8054 90.6334 14.3856 90.8209 13.8615C91.0126 13.3373 91.1085 12.7599 91.1085 12.1292C91.1085 11.5028 91.0126 10.9275 90.8209 10.4034C90.6334 9.87497 90.3436 9.45096 89.9515 9.13136C89.5595 8.81176 89.0652 8.65196 88.4686 8.65196C87.8677 8.65196 87.3692 8.81176 86.9729 9.13136C86.5808 9.45096 86.2889 9.87497 86.0971 10.4034C85.9096 10.9275 85.8159 11.5028 85.8159 12.1292C85.8159 12.7599 85.9096 13.3373 86.0971 13.8615C86.2889 14.3856 86.5808 14.8054 86.9729 15.1207C87.3692 15.436 87.8677 15.5937 88.4686 15.5937Z" fill="#F7F7F8"/>
    <path d="M99.3079 17.1981C98.3576 17.1981 97.5394 16.9829 96.8534 16.5525C96.1715 16.1179 95.6474 15.5191 95.2809 14.7564C94.9144 13.9936 94.7312 13.12 94.7312 12.1356C94.7312 11.1385 94.9187 10.2585 95.2937 9.49571C95.6687 8.72866 96.1971 8.12994 96.8789 7.69954C97.5607 7.26914 98.364 7.05394 99.2887 7.05394C100.034 7.05394 100.699 7.19244 101.283 7.46943C101.867 7.74215 102.338 8.12568 102.696 8.61999C103.058 9.11431 103.273 9.69173 103.341 10.3522H101.481C101.379 9.89201 101.145 9.49571 100.778 9.16332C100.416 8.83093 99.9301 8.66474 99.3207 8.66474C98.788 8.66474 98.3214 8.80537 97.9208 9.08662C97.5245 9.3636 97.2156 9.75991 96.994 10.2755C96.7724 10.7869 96.6616 11.392 96.6616 12.0909C96.6616 12.8068 96.7703 13.4247 96.9876 13.9446C97.2049 14.4645 97.5117 14.8672 97.9081 15.1527C98.3086 15.4382 98.7795 15.5809 99.3207 15.5809C99.6829 15.5809 100.011 15.5149 100.305 15.3828C100.603 15.2464 100.853 15.0525 101.053 14.8011C101.257 14.5497 101.4 14.2471 101.481 13.8934H103.341C103.273 14.5284 103.066 15.0951 102.721 15.5937C102.376 16.0923 101.914 16.4843 101.334 16.7699C100.759 17.0554 100.083 17.1981 99.3079 17.1981Z" fill="#F7F7F8"/>
    <path d="M107.143 13.6697L107.13 11.3366H107.463L111.374 7.18179H113.663L109.201 11.9119H108.901L107.143 13.6697ZM105.385 17V3.90906H107.296V17H105.385ZM111.585 17L108.07 12.3338L109.387 10.9978L113.931 17H111.585Z" fill="#F7F7F8"/>
    <path d="M122.762 9.5788L121.03 9.88562C120.957 9.66403 120.842 9.45309 120.685 9.25281C120.531 9.05252 120.322 8.88846 120.058 8.76062C119.794 8.63278 119.464 8.56886 119.067 8.56886C118.526 8.56886 118.074 8.69031 117.712 8.93321C117.35 9.17184 117.169 9.48079 117.169 9.86005C117.169 10.1882 117.29 10.4524 117.533 10.6527C117.776 10.8529 118.168 11.017 118.709 11.1449L120.269 11.5028C121.172 11.7116 121.846 12.0333 122.289 12.468C122.732 12.9027 122.954 13.4673 122.954 14.1619C122.954 14.75 122.783 15.2741 122.442 15.7343C122.106 16.1903 121.635 16.5483 121.03 16.8082C120.429 17.0681 119.732 17.1981 118.939 17.1981C117.84 17.1981 116.943 16.9637 116.248 16.495C115.554 16.022 115.128 15.3508 114.97 14.4815L116.817 14.2003C116.932 14.6818 117.169 15.0461 117.527 15.2933C117.885 15.5362 118.351 15.6576 118.927 15.6576C119.553 15.6576 120.054 15.5277 120.429 15.2677C120.804 15.0035 120.991 14.6818 120.991 14.3025C120.991 13.9957 120.876 13.7379 120.646 13.5291C120.42 13.3203 120.073 13.1626 119.604 13.0561L117.942 12.6917C117.026 12.4829 116.349 12.1505 115.91 11.6946C115.475 11.2386 115.258 10.6612 115.258 9.96232C115.258 9.38278 115.42 8.87568 115.743 8.44102C116.067 8.00636 116.515 7.66758 117.086 7.42468C117.657 7.17752 118.311 7.05394 119.048 7.05394C120.109 7.05394 120.944 7.28406 121.554 7.74429C122.163 8.20025 122.566 8.81176 122.762 9.5788Z" fill="#F7F7F8"/>
    <rect x="1" y="8.3197" width="16.6335" height="8.48137" rx="3" stroke="url(#paint0_angular_135_50)" stroke-width="2"/>
    <defs>
        <radialGradient id="paint0_angular_135_50" cx="0" cy="0" r="1" gradientUnits="userSpaceOnUse" gradientTransform="translate(9.31677 12.5604) rotate(-90) scale(5.24066 9.31673)">
            <stop stop-color="#98F7A7"/>
            <stop offset="1" stop-color="#98F7A7" stop-opacity="0"/>
        </radialGradient>
    </defs>
</svg>